<svg id="Layer_1" xmlns="http://www.w3.org/2000/svg" viewBox="0 0 1920 502" width="1920" height="502"><style>.st0{fill:url(#SVGID_1_)}.st1{fill:#11accd}.st2{fill:#39c2db}.st3{fill:#1fb5d2}.st4{fill:#a7e4ec}.st5,.st6,.st7{opacity:.9;fill:#d0eaed;enable-background:new}.st6,.st7{opacity:.85;fill:#f0f1f2}.st7{opacity:.8}.st8{fill:#d0eaed}.st9{fill:#1499af}</style><linearGradient id="SVGID_1_" gradientUnits="userSpaceOnUse" x1="960.4" y1="763.7" x2="960.4" y2="257.7" gradientTransform="translate(0 -260)"><stop offset="0" stop-color="#63d9ea"/><stop offset=".356" stop-color="#61d9e9"/><stop offset=".535" stop-color="#59d8e6"/><stop offset=".674" stop-color="#4cd7e0"/><stop offset=".793" stop-color="#39d6d8"/><stop offset=".897" stop-color="#21d4ce"/><stop offset=".993" stop-color="#04d1c2"/><stop offset="1" stop-color="#01d1c1"/></linearGradient><path class="st0" d="M.4-2.3h1920v506H.4z"/><path class="st1" d="M1919.9 504.1V290.5l-104.3-115.1-39.1 46.1-118.6-130.7-350.2 413.3zM222.6 176.6L160.4 250l-34.6-38.1L.4 359.9v144.2h519.2z"/><path class="st2" d="M686.6 326.6L536.2 504.1h311.4z"/><path class="st3" d="M781.6 504.1L519.5 215l-28.7 33.8-100.3-110.5-290.2 342.6h193.9l-19.7 23.2z"/><path class="st4" d="M664.9 374.3c5.7 0 5.7-8.7 11.4-8.7s5.7 8.7 11.4 8.7 5.7-8.7 11.4-8.7 5.7 8.7 11.4 8.7 5.7-8.7 11.4-8.7l-35.4-39-31.8 37.6 9.1 10c.4.1.7.1 1.1.1z"/><path class="st5" d="M453.2 207.5c-10.1 0-10.1 15.5-20.2 15.5s-10.1-15.5-20.2-15.5-10.1 15.5-20.2 15.5-10.1-15.5-20.2-15.5-10.1 15.5-20.2 15.5-10.1-15.5-20.2-15.5l58.6-69.2 62.6 69.2z"/><path class="st6" d="M259.5 217.4c-6 0-6 9.1-11.9 9.1s-6-9.1-11.9-9.1c-6 0-6 9.1-11.9 9.1-6 0-6-9.1-11.9-9.1-6 0-6 9.1-11.9 9.1-6 0-6-9.1-11.9-9.1l34.5-40.8 36.9 40.8z"/><path class="st3" d="M1505.9 211.9l-66.2 78.2-57.7-63.6-57.4 67.8-22.4-24.6-198.6 234.4h667.3z"/><path class="st4" d="M1416.7 264.7c-5.6 0-5.6 8.6-11.2 8.6s-5.6-8.6-11.2-8.6-5.6 8.6-11.2 8.6-5.6-8.6-11.2-8.6-5.6 8.6-11.2 8.6-5.6-8.6-11.2-8.6l32.5-38.2 34.7 38.2z"/><path class="st7" d="M1846.9 210c-5.1 0-5.1 7.7-10.1 7.7-5.1 0-5.1-7.7-10.1-7.7-5.1 0-5.1 7.7-10.1 7.7-5.1 0-5.1-7.7-10.1-7.7-5.1 0-5.1 7.7-10.1 7.7-5.1 0-5.1-7.7-10.1-7.7l29.3-34.6 31.3 34.6z"/><path class="st6" d="M1735.5 176.4c-12.5 0-12.5 19.2-25.1 19.2-12.5 0-12.5-19.2-25.1-19.2-12.5 0-12.5 19.2-25.1 19.2-12.5 0-12.5-19.2-25.1-19.2-12.5 0-12.5 19.2-25 19.2s-12.5-19.2-25-19.2l72.6-85.7 77.8 85.7z"/><path class="st8" d="M1443.4 240.2h3.9c.7 0 1.3-.6 1.3-1.3s-.6-1.3-1.3-1.3h.1c-2.3 0-4.2-1.9-4.2-4.2s1.9-4.2 4.2-4.2h26.2c2.3 0 4.2 1.9 4.2 4.2s-1.9 4.2-4.2 4.2h-.6c-.7 0-1.3.6-1.3 1.3s.6 1.3 1.3 1.3h16.4c2.7 0 4.9 2.1 4.9 4.6 0 2.6-2.2 4.6-4.9 4.6h-46c-2.7 0-4.9-2.1-4.9-4.6 0-2.6 2.2-4.6 4.9-4.6z"/><path class="st4" d="M1128.9 183.5h3.9c.7 0 1.3-.6 1.3-1.3s-.6-1.3-1.3-1.3h.1c-2.3 0-4.2-1.9-4.2-4.2s1.9-4.2 4.2-4.2h26.2c2.3 0 4.2 1.9 4.2 4.2s-1.9 4.2-4.2 4.2h-.6c-.7 0-1.3.6-1.3 1.3s.6 1.3 1.3 1.3h16.4c2.7 0 4.9 2.1 4.9 4.6 0 2.6-2.2 4.6-4.9 4.6h-46c-2.7 0-4.9-2.1-4.9-4.6.1-2.5 2.2-4.6 4.9-4.6zM496.4 152.8h-7.8c-1.5 0-2.7-1.2-2.7-2.7s1.2-2.7 2.7-2.7h-.2c4.7 0 8.5-3.8 8.5-8.5s-3.8-8.5-8.5-8.5h-53.1c-4.7 0-8.5 3.8-8.5 8.5s3.8 8.5 8.5 8.5h1.3c1.5 0 2.7 1.2 2.7 2.7s-1.2 2.7-2.7 2.7h-33.3c-5.5 0-9.9 4.2-9.9 9.4s4.4 9.4 9.9 9.4h93.2c5.5 0 9.9-4.2 9.9-9.4-.1-5.2-4.5-9.4-10-9.4z"/><g><path class="st9" d="M1428.5 504.1l-16.9-26.3-15.1 26.3zM1447.5 504.1l-8.7-14.6-7.8 14.6zM1464.4 504.1l-.9-1.6-.8 1.6zM1248.9 480.6l-8.5 16-17.2-28.8-17 31.9h1.6l-1.4 1.5-10.5-17.5-10.3 19.3-16.7-28-12.9 24.2-14.5-24.2-10.6 20-16.3-27.2-15 28.1-9.2-15.3-9.4 17.7-13-21.7-7.6 14.3-10.4-17.5-7.9 14.8-13.9-23.3-6.4 12-11.6-19.5-13.2 24.9-14.8-24.9-14 26.2-11.2-18.7-11.6 21.8-13-21.8-9.8 18.5-15.5-26-5.8 10.9-14.4-24.1-10.7 20.1-13.7-22.9-12.9 24.3-13.5-22.7-7.6 14.3-10.5-17.5-7.9 14.8-13.9-23.3-6.4 12-11.6-19.5-13.2 24.8h-.1l-14.8-24.8-14 26.2-11.1-18.6-11.6 21.8-13-21.8-9.8 18.5-15.5-26-5.8 10.9-14.4-24.1-10.7 20.1-13.7-22.9-5.5 10.3-15.7-26.2-13.7 25.5-9.8-16.5-8 15-14.4-24.2-12.3 23-13.8-23-8.8 16.6-15.9-26.6-8 15-16.7-28-8.9 16.7-18.3-28.4-16.9 29.4-7.5-12.6-9.1 17.1-2.9-1.4-15.9-26.6-14.5 27.5-8.7-14.5-5.6 10.5-9.6-16.1-5.6 10.5L352 360l-14.5 27.2-12.7-21.3-9.4 17.7-4.2-1.8-13.1-21.9-7.1 13.4-4-1.7-14.6-24.5-17 31.9h1.8l-1.7 1.4-10.4-17.4-10.3 19.3-16.7-28-12.9 24.2-14.5-24.2-10.6 20-16.3-27.2-15 28.1-9.2-15.3-13 24.5-14.6-24.5-14.3 26.9-12.5-20.9-8.2 15.6-5.4-9.1-8.9 16.7-18.3-28.4-16.9 29.4-7.5-12.6-9.3 17.5-2.1-.9-8-13.4V504H1263l-14.1-23.4zm-746.3-79.7l-.3-.1.3.1zM1302.9 480.6l-12.5 23.5h38.3l-7.8-13.1-5.6 10.5zM1286.2 504.1l-10.5-17.5-9.4 17.5zM1392.8 504.1l-5.6-9.5-5.1 9.5zM1340.6 504.1l-4.5-7.5-4 7.5zM1367.4 504.1l-8.1-13.5-7.2 13.5z"/></g></svg>
