<svg xmlns="http://www.w3.org/2000/svg" fill="currentColor" viewBox="0 0 256 256"><path d="M.053 85.37c12.051-4.48-1.226-26.022 13.17-27.568-.586 2.293.747 7.411 3.094 4.745.693-4.212 7.092-3.519 6.665-8.318 2.986-1.76 6.665-2.933 8.905-5.385 4.159-4.586 10.344-3.573 15.25-6.08a32 32 0 0 1 2.666 3.787l1.333-5.44c3.946.747 4.212 1.227 7.678-.372 15.997-5.333 31.727 1.28 47.724-1.867l-1.866 4.586c4.105 2.08 6.718.16 10.984-1.493l.32 5.492c1.866 1.387 4.799-1.44 7.145-1.866l.533-4.8c4.106.64 6.985-.852 7.519-5.651 13.01 2.186 20.315-11.038 33.593-9.492 7.838 0 16.956-4.425 23.888 1.227 6.985-1.866 14.717.96 21.862-1.28 2.24 11.144 12.211 4.586 17.597 11.304 1.546 2.666 4.372 7.892 5.652 10.505 1.279 2.613 1.706 2.506-.96 6.452-.267.426-.8.96-.693 1.226 3.146 7.039 1.653 15.037 5.065 22.182 1.28 3.36-.746 8.212.853 11.731 7.359 11.998-.853 8.319 2.986 16.797 5.066 8.158-1.866 4.639.747 9.384 5.332 6.932 2.08 16.157 4.906 24.102.586 3.519-1.547 7.412 1.599 10.505-3.626 3.252-.32 5.012 1.493 7.198.214.267-.906 1.546-.693 1.866 1.653 2.773-1.706 5.972 1.173 8.905 1.067 1.12.427 4.213.107 6.345-2.293 12.051 5.119 8.479 5.652 12.744-.747 2.827-3.679.48-5.332 2.133-1.387 2.613 5.492-.693 2.346 3.306-.747 6.612-2.666 14.344-10.718 12.584-3.786-7.891-15.25 1.014-22.235.107-2.613.267-5.492-1.066-7.785 1.546-4.586 2.027-8.105-5.225-13.277.214-.374.32-1.867-.16-2.4-.64-5.119-4.693-9.598 2.346-14.13-.64-.694-.587-2.56 1.866-5.173.64-7.411-2.773-10.771 9.864-18.129 9.971-4.533 1.067 2.506 2.56-3.253 5.652-7.518-1.333-12.371 5.226-19.516 4.799a8.87 8.87 0 0 1-5.119-1.653c-6.292-3.466-14.237 1.547-19.569-4.585-7.145-6.826-15.41 2.079-22.182 2.506-12.21-1.227-22.822 7.518-34.873 3.412-2.026 3.786-6.345 1.867-8.798 3.52-4.212 2.452-8.425.746-12.477 1.546-5.652 4.479-8.425-1.866-15.41 0 3.146-3.519 7.518-6.132 2.772-10.185 1.76-3.786-4.212-7.518-.16-11.517-4.479-11.838-3.679-26.181-7.358-38.392 1.653-6.772-.373-6.239-1.6-11.731.8-5.439-3.092-10.451-.693-16.21 1.013-4.532-2.613-11.091-3.36-16.05-.48-2.293.587-4.639-1.386-6.985-2.133-6.506 1.547-14.771-2.133-21.436-.533-.96 1.547-3.786-.266-5.759L0 85.37zm224.22 90.86c.96-6.932-3.146-13.49-1.866-20.529-3.626-3.306-.64-7.785-2.026-11.304-3.626-6.452 1.173-14.397-4.373-19.729-3.786-3.626 3.306-6.665-.746-10.291-.853-.854 1.493-4.479.693-6.079-2.826-11.731-.587-24.262-4.639-35.46-.533-1.12-.373-2.399.32-3.412 4.479-3.253-1.866-7.732 1.44-10.984-2.453-.64-1.44-6.132-4.266-4.373-2.56 1.6-3.573 0-5.172-.373a38.8 38.8 0 0 0-14.184-1.866c-4.746-.534-9.705 1.386-14.397-1.333-.96-.587-3.946 1.333-4.266.853-2.293-3.2-3.466 2.346-5.332.533-10.771 5.759-20.263 9.385-31.567 14.397 2.826 4.266 2.666 9.385 2.613 14.45 3.413 4.906.853 12.424 3.786 18.023-3.04 2.613.906 5.172 0 7.785-.747 5.972 2.186 11.411 1.866 17.277.587 2.879 2.56 6.345 1.546 8.425-1.866 3.999 1.6 7.091.374 10.771-1.333 3.945 1.333 7.518 1.706 11.304.16 1.6 3.359 3.253.16 4.959 4.906 2.666-2.24 5.492.906 8.212 9.012 1.866-5.865 6.238.8 10.557.533.48.374 1.653.587 2.613 6.985-.533 13.597 1.493 20.102-1.653 3.2-2.293 5.492 1.866 8.372 1.6 5.652-3.626 11.997-1.333 17.969-1.547 2.56 0 5.119 3.413 7.892 0 3.893 3.786 7.412-1.866 11.464-.373 3.626 1.493 6.932-.8 10.238-2.399zM110.59 75.131c-2.612-.906-5.172-2.08-7.518-3.572-1.866-1.706-4.16-4.426-6.132-2.666-2.773 2.453-4.64-1.387-5.972-.107-2.506 2.453-6.292 3.04-9.385 1.44-3.786-2.133-6.505 2.24-9.865.373-7.092-4.586-10.984 4.586-18.396 3.893-6.185-.747-5.759 5.492-9.598 5.438-5.385-.373-8.691 3.146-11.944 6.772 4.852 10.132 4.48 21.436 6.932 32.154-2.613 1.866 1.6 2.612.746 4.372-2.612 3.626-1.066 6.132 1.867 8.852 1.066 1.493-2.346 1.706-.853 4.425 3.199 7.519 2.559 17.223 3.785 25.435.907 4.106 2.88 7.732 1.067 12.157-.373.907 2.666 2.667.533 5.279-.16 6.719 5.226 12.851-1.013 20.156 10.878.107 18.823-4.692 29.22-6.292 2.667-.64 5.653 2.026 8.266-1.226 1.76-2.186 5.225-2.506 8.371-2.026a12.46 12.46 0 0 0 8.585-1.76c1.706-.427 4.159.16 5.172-.853 1.867-1.867 3.093.96 3.306.533 3.2-5.332 7.732 0 12.904-2.293-1.28-2.026-2.933-3.946-2.613-4.372 2.986-4.053-1.493-7.945 0-11.571.96-2.453-2.879-3.573-.746-6.239 2.346-2.986-1.813-3.786-2.773-5.759-.48-.8-.533-1.759-.266-2.613 3.252-5.438-1.867-10.824-.107-16.21a70.6 70.6 0 0 1-2.506-30.02c-1.867-3.786-.747-7.145-1.28-10.664 1.333-7.519-4.266-6.559 1.866-11.678q-4.372-4.853-1.653-11.304z"/></svg>